<svg width="508" height="104" viewBox="0 0 508 104" fill="none" xmlns="http://www.w3.org/2000/svg">
<path d="M89.8141 70.1931C89.9352 72.1591 89.055 74.0575 87.4592 75.2722C85.7601 76.4355 83.7073 77.0091 81.6316 76.9007C78.2903 76.9139 75.0471 75.8043 72.4517 73.7601L75.0459 69.8827C77.3873 71.5372 79.6358 72.3644 81.7914 72.3642C83.494 72.3642 84.3455 71.8472 84.3459 70.8133V70.7357C84.3459 70.1676 83.9068 69.6894 83.0286 69.3012C82.7093 69.1723 81.6716 68.8492 79.9155 68.3319C75.6579 67.1172 73.5291 65.0365 73.5293 62.0896V62.012C73.4586 60.1189 74.3178 58.3056 75.8442 57.1265C77.4162 55.9456 79.3667 55.3415 81.3522 55.4205C84.2031 55.4137 86.9881 56.2525 89.3351 57.8246L87.02 61.8955C84.7579 60.6035 82.8288 59.9573 81.2325 59.957C79.7421 59.957 78.9971 60.4352 78.9973 61.3916V61.4691C78.9973 61.9866 79.4364 62.4519 80.3146 62.865C80.6601 63.02 81.6712 63.3818 83.3481 63.9506C84.8979 64.3974 86.3659 65.0777 87.6985 65.9667C89.0505 66.9379 89.838 68.4823 89.8141 70.1155V70.1931Z" fill="white"/>
<path d="M104.567 77.0169C103.742 79.1622 102.824 80.6615 101.813 81.5148C100.601 82.4414 99.0833 82.9097 97.5425 82.8328C95.6457 82.8378 93.7832 82.3419 92.1541 81.3982L94.1898 77.1335C94.9627 77.6281 95.8594 77.9095 96.7841 77.9475C97.7114 77.9674 98.5542 77.4268 98.8996 76.5906L90.5176 55.7309H96.9438L101.813 69.8827L106.483 55.7309H112.789L104.567 77.0169Z" fill="white"/>
<path d="M129.881 70.1931C130.002 72.1591 129.122 74.0575 127.526 75.2722C125.827 76.4355 123.774 77.0091 121.699 76.9007C118.357 76.9139 115.114 75.8043 112.519 73.7601L115.113 69.8827C117.454 71.5372 119.703 72.3644 121.859 72.3642C123.561 72.3642 124.413 71.8472 124.413 70.8133V70.7357C124.413 70.1676 123.974 69.6894 123.096 69.3012C122.776 69.1723 121.739 68.8492 119.983 68.3319C115.725 67.1172 113.596 65.0365 113.596 62.0896V62.012C113.526 60.1189 114.385 58.3056 115.911 57.1265C117.483 55.9456 119.434 55.3415 121.419 55.4205C124.27 55.4137 127.055 56.2525 129.402 57.8246L127.087 61.8955C124.825 60.6035 122.896 59.9573 121.3 59.957C119.809 59.957 119.064 60.4352 119.064 61.3915V61.4691C119.064 61.9865 119.504 62.4518 120.382 62.865C120.727 63.02 121.738 63.3818 123.415 63.9506C124.965 64.3974 126.433 65.0777 127.766 65.9667C129.118 66.9379 129.905 68.4823 129.881 70.1155V70.1931Z" fill="white"/>
<path fill-rule="evenodd" clip-rule="evenodd" d="M148.393 74.6907V76.513H154.46V48.209H148.393V57.2817C146.451 55.9413 144.108 55.26 141.728 55.3431C139.168 55.2913 136.704 56.2909 134.942 58.096C132.973 60.1123 131.989 62.7746 131.989 66.083V66.1606C131.989 69.4692 132.987 72.1316 134.982 74.1478C136.731 75.9477 139.18 76.9473 141.728 76.9007C144.157 77.0063 146.537 76.217 148.393 74.6907ZM146.957 61.9345C147.99 63.0781 148.532 64.5626 148.473 66.083V66.1606C148.532 67.681 147.99 69.1657 146.957 70.3094C146.02 71.3212 144.685 71.8991 143.284 71.8991C141.884 71.8991 140.549 71.3212 139.612 70.3094C138.556 69.1767 137.997 67.6878 138.056 66.1606V66.083C137.993 64.5434 138.551 63.0409 139.612 61.8955C140.545 60.8835 141.886 60.3172 143.284 60.3447C144.69 60.32 146.035 60.9022 146.957 61.9345Z" fill="white"/>
<path fill-rule="evenodd" clip-rule="evenodd" d="M158.132 48.209V53.5436H164.518V48.209H158.132ZM158.292 55.7309V76.513H164.359V55.7309H158.292Z" fill="white"/>
<path fill-rule="evenodd" clip-rule="evenodd" d="M187.519 80.2351C189.515 78.4779 190.512 75.6734 190.512 71.8215V55.7309H184.445V57.2817C182.404 55.9608 179.993 55.2838 177.54 55.3432C175.085 55.2846 172.709 56.1936 170.955 57.8633C168.981 59.7452 167.922 62.3521 168.041 65.0361V65.1137C167.92 67.7905 168.963 70.3933 170.915 72.2868C172.682 73.9617 175.072 74.8707 177.54 74.8069C180.062 74.8771 182.53 74.0961 184.525 72.597V72.8295C184.525 76.0865 182.49 77.715 178.419 77.715C175.881 77.7055 173.39 77.0504 171.194 75.8151L169.119 80.6228C172.039 82.0938 175.289 82.8397 178.578 82.7941C182.623 82.7941 185.603 81.9411 187.519 80.2351ZM183.009 61.5854C184.009 62.4653 184.563 63.7259 184.525 65.0361V65.1137C184.563 66.424 184.009 67.6848 183.009 68.5647C182.005 69.4767 180.67 69.9647 179.297 69.9217C177.93 69.9664 176.599 69.4937 175.585 68.6033C174.6 67.6997 174.062 66.4288 174.108 65.1137V65.0361C174.068 63.7334 174.606 62.4766 175.585 61.5854C177.709 59.7761 180.884 59.7761 183.009 61.5854Z" fill="white"/>
<path fill-rule="evenodd" clip-rule="evenodd" d="M19.9012 21.026L44.6128 63.1484C45.2513 64.2365 46.9998 66.0626 49.226 65.6027L49.6014 65.5044C50.7007 65.1565 51.8784 65.751 52.2326 66.8326C52.5868 67.9142 51.9834 69.0737 50.8846 69.4229C50.1197 69.6683 49.3205 69.7941 48.516 69.7958C45.2125 69.7958 42.4122 67.6311 40.9902 65.2069L16.2786 23.0846C15.7037 22.1003 16.0471 20.8438 17.0461 20.2762C18.0451 19.7085 19.3225 20.044 19.9012 21.026ZM58.0033 40.6765C57.631 40.0371 56.9397 39.6423 56.1908 39.6415C55.4419 39.6408 54.7497 40.0341 54.376 40.6728C54.0023 41.3115 54.0041 42.098 54.3808 42.7351L61.5732 54.9947C65.646 61.9375 63.3511 71.639 56.2507 77.7046C47.3623 80.7236 37.6783 77.8285 33.6052 70.8857L26.0917 58.0784L30.1106 55.795C30.7592 55.4281 31.1593 54.7481 31.1597 54.0117C31.1602 53.2754 30.7609 52.595 30.1127 52.2272C29.4645 51.8595 28.6661 51.8605 28.0189 52.2299L22.1887 55.5426C21.7083 55.8155 21.3577 56.2651 21.2142 56.7925C21.0706 57.3198 21.1458 57.8817 21.4233 58.3544L29.9826 72.9442C33.7276 79.3278 41.1703 83 49.1444 83C52.1751 82.9974 55.182 82.4734 58.0293 81.4516C58.2589 81.3695 58.472 81.2484 58.6591 81.0938C67.5124 73.7808 70.3227 61.6754 65.1957 52.9362L58.0033 40.6765ZM38.643 66.557L34.2114 58.8458C33.6492 57.8527 32.3754 57.4961 31.3663 58.0493C30.3571 58.6025 29.9948 59.8561 30.5569 60.8492C30.6806 61.0677 32.6514 64.5219 34.0643 66.9696L35.3229 69.1331C38.1329 73.7256 43.2138 76.5304 48.6908 76.4703C50.587 76.46 52.4715 76.1754 54.2836 75.6256C55.3895 75.2969 56.0152 74.1482 55.6812 73.0599C55.3472 71.9715 54.18 71.3557 53.0741 71.6844C46.9833 73.4963 41.5886 71.5782 38.643 66.557ZM43.9307 43.1892L38.0422 33.1517C37.4635 32.1696 36.186 31.8341 35.187 32.4018C34.188 32.9694 33.8447 34.226 34.4196 35.2102L41.3537 47.0303C41.7274 47.6671 42.4178 48.0595 43.165 48.0595C43.5322 48.0595 43.8929 47.9642 44.2109 47.7835L49.7677 44.6261C50.7656 44.0566 51.1065 42.7994 50.5297 41.8163C49.9529 40.8331 48.6761 40.4952 47.676 41.061L43.9307 43.1892Z" fill="#00ABC8"/>
<path d="M209.945 78.4414H205.746L216.215 47.5625H220.414L209.945 78.4414Z" fill="white"/>
<path d="M233.461 76V47.5625H242.211C244.711 47.5625 246.944 48.1289 248.91 49.2617C250.889 50.3815 252.432 51.9831 253.539 54.0664C254.646 56.1367 255.199 58.4935 255.199 61.1367V62.4453C255.199 65.0885 254.652 67.4388 253.559 69.4961C252.478 71.5534 250.948 73.1484 248.969 74.2812C246.99 75.4141 244.757 75.987 242.27 76H233.461ZM239.32 52.3086V71.293H242.152C244.444 71.293 246.195 70.5443 247.406 69.0469C248.617 67.5495 249.236 65.4076 249.262 62.6211V61.1172C249.262 58.2266 248.663 56.0391 247.465 54.5547C246.267 53.0573 244.516 52.3086 242.211 52.3086H239.32Z" fill="white"/>
<path d="M265.062 76H259.398V54.8672H265.062V76ZM259.066 49.3984C259.066 48.5521 259.346 47.8555 259.906 47.3086C260.479 46.7617 261.254 46.4883 262.23 46.4883C263.194 46.4883 263.962 46.7617 264.535 47.3086C265.108 47.8555 265.395 48.5521 265.395 49.3984C265.395 50.2578 265.102 50.9609 264.516 51.5078C263.943 52.0547 263.181 52.3281 262.23 52.3281C261.28 52.3281 260.512 52.0547 259.926 51.5078C259.353 50.9609 259.066 50.2578 259.066 49.3984Z" fill="white"/>
<path d="M268.91 65.2773C268.91 62.0352 269.678 59.4245 271.215 57.4453C272.764 55.4661 274.848 54.4766 277.465 54.4766C279.783 54.4766 281.586 55.2708 282.875 56.8594L283.109 54.8672H288.227V75.2969C288.227 77.1458 287.803 78.7539 286.957 80.1211C286.124 81.4883 284.945 82.5299 283.422 83.2461C281.898 83.9622 280.115 84.3203 278.07 84.3203C276.521 84.3203 275.01 84.0078 273.539 83.3828C272.068 82.7708 270.954 81.9766 270.199 81L272.699 77.5625C274.105 79.138 275.811 79.9258 277.816 79.9258C279.314 79.9258 280.479 79.5221 281.312 78.7148C282.146 77.9206 282.562 76.7878 282.562 75.3164V74.1836C281.26 75.6549 279.548 76.3906 277.426 76.3906C274.887 76.3906 272.829 75.401 271.254 73.4219C269.691 71.4297 268.91 68.793 268.91 65.5117V65.2773ZM274.555 65.6875C274.555 67.6016 274.939 69.1055 275.707 70.1992C276.475 71.2799 277.53 71.8203 278.871 71.8203C280.59 71.8203 281.82 71.1758 282.562 69.8867V61C281.807 59.7109 280.59 59.0664 278.91 59.0664C277.556 59.0664 276.488 59.6198 275.707 60.7266C274.939 61.8333 274.555 63.487 274.555 65.6875Z" fill="white"/>
<path d="M291.762 65.2773C291.762 62.0352 292.53 59.4245 294.066 57.4453C295.616 55.4661 297.699 54.4766 300.316 54.4766C302.634 54.4766 304.438 55.2708 305.727 56.8594L305.961 54.8672H311.078V75.2969C311.078 77.1458 310.655 78.7539 309.809 80.1211C308.975 81.4883 307.797 82.5299 306.273 83.2461C304.75 83.9622 302.966 84.3203 300.922 84.3203C299.372 84.3203 297.862 84.0078 296.391 83.3828C294.919 82.7708 293.806 81.9766 293.051 81L295.551 77.5625C296.957 79.138 298.663 79.9258 300.668 79.9258C302.165 79.9258 303.331 79.5221 304.164 78.7148C304.997 77.9206 305.414 76.7878 305.414 75.3164V74.1836C304.112 75.6549 302.4 76.3906 300.277 76.3906C297.738 76.3906 295.681 75.401 294.105 73.4219C292.543 71.4297 291.762 68.793 291.762 65.5117V65.2773ZM297.406 65.6875C297.406 67.6016 297.79 69.1055 298.559 70.1992C299.327 71.2799 300.382 71.8203 301.723 71.8203C303.441 71.8203 304.672 71.1758 305.414 69.8867V61C304.659 59.7109 303.441 59.0664 301.762 59.0664C300.408 59.0664 299.34 59.6198 298.559 60.7266C297.79 61.8333 297.406 63.487 297.406 65.6875Z" fill="white"/>
<path d="M323.324 68.0117L327.23 54.8672H333.285L324.789 79.2812L324.32 80.3945C323.057 83.1549 320.974 84.5352 318.07 84.5352C317.25 84.5352 316.417 84.4115 315.57 84.1641V79.8867L316.43 79.9062C317.497 79.9062 318.292 79.7435 318.812 79.418C319.346 79.0924 319.763 78.5521 320.062 77.7969L320.727 76.0586L313.324 54.8672H319.398L323.324 68.0117Z" fill="white"/>
<path d="M337.445 56.293L334.789 54.75C335.909 52.9922 336.488 51.1758 336.527 49.3008V46H341.02V49.0273C341.02 50.1992 340.694 51.4688 340.043 52.8359C339.392 54.2031 338.526 55.3555 337.445 56.293Z" fill="white"/>
<path d="M351.918 70.1602C351.918 69.4701 351.573 68.9297 350.883 68.5391C350.206 68.1354 349.112 67.7773 347.602 67.4648C342.576 66.4102 340.062 64.2747 340.062 61.0586C340.062 59.1836 340.837 57.6211 342.387 56.3711C343.949 55.1081 345.987 54.4766 348.5 54.4766C351.182 54.4766 353.324 55.1081 354.926 56.3711C356.54 57.6341 357.348 59.2747 357.348 61.293H351.703C351.703 60.4857 351.443 59.8216 350.922 59.3008C350.401 58.7669 349.587 58.5 348.48 58.5C347.53 58.5 346.794 58.7148 346.273 59.1445C345.753 59.5742 345.492 60.1211 345.492 60.7852C345.492 61.4102 345.785 61.918 346.371 62.3086C346.97 62.6862 347.973 63.0182 349.379 63.3047C350.785 63.5781 351.97 63.8906 352.934 64.2422C355.915 65.3359 357.406 67.2305 357.406 69.9258C357.406 71.8529 356.579 73.4154 354.926 74.6133C353.272 75.7982 351.137 76.3906 348.52 76.3906C346.749 76.3906 345.173 76.0781 343.793 75.4531C342.426 74.8151 341.352 73.9492 340.57 72.8555C339.789 71.7487 339.398 70.5573 339.398 69.2812H344.75C344.802 70.2839 345.173 71.0521 345.863 71.5859C346.553 72.1198 347.478 72.3867 348.637 72.3867C349.717 72.3867 350.531 72.1849 351.078 71.7812C351.638 71.3646 351.918 70.8242 351.918 70.1602Z" fill="white"/>
<path d="M391.625 52.3086H382.914V76H377.055V52.3086H368.461V47.5625H391.625V52.3086Z" fill="white"/>
<path d="M403.578 76C403.318 75.4922 403.129 74.8607 403.012 74.1055C401.645 75.6289 399.867 76.3906 397.68 76.3906C395.609 76.3906 393.891 75.7917 392.523 74.5938C391.169 73.3958 390.492 71.8854 390.492 70.0625C390.492 67.8229 391.319 66.1042 392.973 64.9062C394.639 63.7083 397.042 63.1029 400.18 63.0898H402.777V61.8789C402.777 60.9023 402.523 60.1211 402.016 59.5352C401.521 58.9492 400.733 58.6562 399.652 58.6562C398.702 58.6562 397.953 58.8841 397.406 59.3398C396.872 59.7956 396.605 60.4206 396.605 61.2148H390.961C390.961 59.9909 391.339 58.8581 392.094 57.8164C392.849 56.7747 393.917 55.9609 395.297 55.375C396.677 54.776 398.227 54.4766 399.945 54.4766C402.549 54.4766 404.613 55.1341 406.137 56.4492C407.673 57.7513 408.441 59.5872 408.441 61.957V71.1172C408.454 73.1224 408.734 74.6393 409.281 75.668V76H403.578ZM398.91 72.0742C399.743 72.0742 400.512 71.8919 401.215 71.5273C401.918 71.1497 402.439 70.6484 402.777 70.0234V66.3906H400.668C397.842 66.3906 396.339 67.3672 396.156 69.3203L396.137 69.6523C396.137 70.3555 396.384 70.9349 396.879 71.3906C397.374 71.8464 398.051 72.0742 398.91 72.0742Z" fill="white"/>
<path d="M420.375 69.1055L424.301 54.8672H430.199L423.07 76H417.68L410.551 54.8672H416.449L420.375 69.1055Z" fill="white"/>
<path d="M442.152 76.3906C439.053 76.3906 436.527 75.4401 434.574 73.5391C432.634 71.638 431.664 69.1055 431.664 65.9414V65.3945C431.664 63.2721 432.074 61.3776 432.895 59.7109C433.715 58.0312 434.874 56.7422 436.371 55.8438C437.882 54.9323 439.6 54.4766 441.527 54.4766C444.418 54.4766 446.69 55.388 448.344 57.2109C450.01 59.0339 450.844 61.6185 450.844 64.9648V67.2695H437.387C437.569 68.6497 438.116 69.7565 439.027 70.5898C439.952 71.4232 441.117 71.8398 442.523 71.8398C444.698 71.8398 446.397 71.0521 447.621 69.4766L450.395 72.582C449.548 73.7799 448.402 74.7174 446.957 75.3945C445.512 76.0586 443.91 76.3906 442.152 76.3906ZM441.508 59.0469C440.388 59.0469 439.477 59.4245 438.773 60.1797C438.083 60.9349 437.641 62.0156 437.445 63.4219H445.297V62.9727C445.271 61.7227 444.932 60.7591 444.281 60.082C443.63 59.3919 442.706 59.0469 441.508 59.0469Z" fill="white"/>
<path d="M465.941 60.1602C465.173 60.056 464.496 60.0039 463.91 60.0039C461.775 60.0039 460.375 60.7266 459.711 62.1719V76H454.066V54.8672H459.398L459.555 57.3867C460.688 55.4466 462.257 54.4766 464.262 54.4766C464.887 54.4766 465.473 54.5612 466.02 54.7305L465.941 60.1602Z" fill="white"/>
<path d="M473.871 54.8672L474.047 57.3086C475.557 55.4206 477.582 54.4766 480.121 54.4766C482.361 54.4766 484.027 55.1341 485.121 56.4492C486.215 57.7643 486.775 59.7305 486.801 62.3477V76H481.156V62.4844C481.156 61.2865 480.896 60.4206 480.375 59.8867C479.854 59.3398 478.988 59.0664 477.777 59.0664C476.189 59.0664 474.997 59.7435 474.203 61.0977V76H468.559V54.8672H473.871Z" fill="white"/>
</svg>
