<svg width="208" height="104" viewBox="0 0 208 104" fill="none" xmlns="http://www.w3.org/2000/svg">
<path d="M89.8141 70.1931C89.9352 72.1591 89.055 74.0575 87.4592 75.2722C85.7601 76.4355 83.7073 77.0091 81.6316 76.9007C78.2903 76.9139 75.0471 75.8043 72.4517 73.7601L75.0459 69.8827C77.3873 71.5372 79.6358 72.3644 81.7914 72.3642C83.494 72.3642 84.3455 71.8472 84.3459 70.8133V70.7357C84.3459 70.1676 83.9068 69.6894 83.0286 69.3012C82.7093 69.1723 81.6716 68.8492 79.9155 68.3319C75.6579 67.1172 73.5291 65.0365 73.5293 62.0896V62.012C73.4586 60.1189 74.3178 58.3056 75.8442 57.1265C77.4162 55.9456 79.3667 55.3415 81.3522 55.4205C84.2031 55.4137 86.9881 56.2525 89.3351 57.8246L87.02 61.8955C84.7579 60.6035 82.8288 59.9573 81.2325 59.957C79.7421 59.957 78.9971 60.4352 78.9973 61.3916V61.4691C78.9973 61.9866 79.4364 62.4519 80.3146 62.865C80.6601 63.02 81.6712 63.3818 83.3481 63.9506C84.8979 64.3974 86.3659 65.0777 87.6985 65.9667C89.0505 66.9379 89.838 68.4823 89.8141 70.1155V70.1931Z" fill="white"/>
<path d="M104.567 77.0169C103.742 79.1622 102.824 80.6615 101.813 81.5148C100.601 82.4414 99.0833 82.9097 97.5425 82.8328C95.6457 82.8378 93.7832 82.3419 92.1541 81.3982L94.1898 77.1335C94.9627 77.6281 95.8594 77.9095 96.7841 77.9475C97.7114 77.9674 98.5542 77.4268 98.8996 76.5906L90.5176 55.7309H96.9438L101.813 69.8827L106.483 55.7309H112.789L104.567 77.0169Z" fill="white"/>
<path d="M129.881 70.1931C130.002 72.1591 129.122 74.0575 127.526 75.2722C125.827 76.4355 123.774 77.0091 121.699 76.9007C118.357 76.9139 115.114 75.8043 112.519 73.7601L115.113 69.8827C117.454 71.5372 119.703 72.3644 121.859 72.3642C123.561 72.3642 124.413 71.8472 124.413 70.8133V70.7357C124.413 70.1676 123.974 69.6894 123.096 69.3012C122.776 69.1723 121.739 68.8492 119.983 68.3319C115.725 67.1172 113.596 65.0365 113.596 62.0896V62.012C113.526 60.1189 114.385 58.3056 115.911 57.1265C117.483 55.9456 119.434 55.3415 121.419 55.4205C124.27 55.4137 127.055 56.2525 129.402 57.8246L127.087 61.8955C124.825 60.6035 122.896 59.9573 121.3 59.957C119.809 59.957 119.064 60.4352 119.064 61.3915V61.4691C119.064 61.9865 119.504 62.4518 120.382 62.865C120.727 63.02 121.738 63.3818 123.415 63.9506C124.965 64.3974 126.433 65.0777 127.766 65.9667C129.118 66.9379 129.905 68.4823 129.881 70.1155V70.1931Z" fill="white"/>
<path fill-rule="evenodd" clip-rule="evenodd" d="M148.393 74.6907V76.513H154.46V48.209H148.393V57.2817C146.451 55.9413 144.108 55.26 141.728 55.3431C139.168 55.2913 136.704 56.2909 134.942 58.096C132.973 60.1123 131.989 62.7746 131.989 66.083V66.1606C131.989 69.4692 132.987 72.1316 134.982 74.1478C136.731 75.9477 139.18 76.9473 141.728 76.9007C144.157 77.0063 146.537 76.217 148.393 74.6907ZM146.957 61.9345C147.99 63.0781 148.532 64.5626 148.473 66.083V66.1606C148.532 67.681 147.99 69.1657 146.957 70.3094C146.02 71.3212 144.685 71.8991 143.284 71.8991C141.884 71.8991 140.549 71.3212 139.612 70.3094C138.556 69.1767 137.997 67.6878 138.056 66.1606V66.083C137.993 64.5434 138.551 63.0409 139.612 61.8955C140.545 60.8835 141.886 60.3172 143.284 60.3447C144.69 60.32 146.035 60.9022 146.957 61.9345Z" fill="white"/>
<path fill-rule="evenodd" clip-rule="evenodd" d="M158.132 48.209V53.5436H164.518V48.209H158.132ZM158.292 55.7309V76.513H164.359V55.7309H158.292Z" fill="white"/>
<path fill-rule="evenodd" clip-rule="evenodd" d="M187.519 80.2351C189.515 78.4779 190.512 75.6734 190.512 71.8215V55.7309H184.445V57.2817C182.404 55.9608 179.993 55.2838 177.54 55.3432C175.085 55.2846 172.709 56.1936 170.955 57.8633C168.981 59.7452 167.922 62.3521 168.041 65.0361V65.1137C167.92 67.7905 168.963 70.3933 170.915 72.2868C172.682 73.9617 175.072 74.8707 177.54 74.8069C180.062 74.8771 182.53 74.0961 184.525 72.597V72.8295C184.525 76.0865 182.49 77.715 178.419 77.715C175.881 77.7055 173.39 77.0504 171.194 75.8151L169.119 80.6228C172.039 82.0938 175.289 82.8397 178.578 82.7941C182.623 82.7941 185.603 81.9411 187.519 80.2351ZM183.009 61.5854C184.009 62.4653 184.563 63.7259 184.525 65.0361V65.1137C184.563 66.424 184.009 67.6848 183.009 68.5647C182.005 69.4767 180.67 69.9647 179.297 69.9217C177.93 69.9664 176.599 69.4937 175.585 68.6033C174.6 67.6997 174.062 66.4288 174.108 65.1137V65.0361C174.068 63.7334 174.606 62.4766 175.585 61.5854C177.709 59.7761 180.884 59.7761 183.009 61.5854Z" fill="white"/>
<path fill-rule="evenodd" clip-rule="evenodd" d="M19.9012 21.026L44.6128 63.1484C45.2513 64.2365 46.9998 66.0626 49.226 65.6027L49.6014 65.5044C50.7007 65.1565 51.8784 65.751 52.2326 66.8326C52.5868 67.9142 51.9834 69.0737 50.8846 69.4229C50.1197 69.6683 49.3205 69.7941 48.516 69.7958C45.2125 69.7958 42.4122 67.6311 40.9902 65.2069L16.2786 23.0846C15.7037 22.1003 16.0471 20.8438 17.0461 20.2762C18.0451 19.7085 19.3225 20.044 19.9012 21.026ZM58.0033 40.6765C57.631 40.0371 56.9397 39.6423 56.1908 39.6415C55.4419 39.6408 54.7497 40.0341 54.376 40.6728C54.0023 41.3115 54.0041 42.098 54.3808 42.7351L61.5732 54.9947C65.646 61.9375 63.3511 71.639 56.2507 77.7046C47.3623 80.7236 37.6783 77.8285 33.6052 70.8857L26.0917 58.0784L30.1106 55.795C30.7592 55.4281 31.1593 54.7481 31.1597 54.0117C31.1602 53.2754 30.7609 52.595 30.1127 52.2272C29.4645 51.8595 28.6661 51.8605 28.0189 52.2299L22.1887 55.5426C21.7083 55.8155 21.3577 56.2651 21.2142 56.7925C21.0706 57.3198 21.1458 57.8817 21.4233 58.3544L29.9826 72.9442C33.7276 79.3278 41.1703 83 49.1444 83C52.1751 82.9974 55.182 82.4734 58.0293 81.4516C58.2589 81.3695 58.472 81.2484 58.6591 81.0938C67.5124 73.7808 70.3227 61.6754 65.1957 52.9362L58.0033 40.6765ZM38.643 66.557L34.2114 58.8458C33.6492 57.8527 32.3754 57.4961 31.3663 58.0493C30.3571 58.6025 29.9948 59.8561 30.5569 60.8492C30.6806 61.0677 32.6514 64.5219 34.0643 66.9696L35.3229 69.1331C38.1329 73.7256 43.2138 76.5304 48.6908 76.4703C50.587 76.46 52.4715 76.1754 54.2836 75.6256C55.3895 75.2969 56.0152 74.1482 55.6812 73.0599C55.3472 71.9715 54.18 71.3557 53.0741 71.6844C46.9833 73.4963 41.5886 71.5782 38.643 66.557ZM43.9307 43.1892L38.0422 33.1517C37.4635 32.1696 36.186 31.8341 35.187 32.4018C34.188 32.9694 33.8447 34.226 34.4196 35.2102L41.3537 47.0303C41.7274 47.6671 42.4178 48.0595 43.165 48.0595C43.5322 48.0595 43.8929 47.9642 44.2109 47.7835L49.7677 44.6261C50.7656 44.0566 51.1065 42.7994 50.5297 41.8163C49.9529 40.8331 48.6761 40.4952 47.676 41.061L43.9307 43.1892Z" fill="#00ABC8"/>
</svg>
