<svg width="50" height="50" viewBox="0 0 50 50" fill="none" xmlns="http://www.w3.org/2000/svg">
<path fill-rule="evenodd" clip-rule="evenodd" d="M44.9871 25.0005H35.1274C34.7418 25.0005 34.3946 25.2122 34.2217 25.5532L31.3724 31.1788L26.9919 14.7473C26.882 14.3339 26.5178 14.0353 26.0857 14.004L25.9731 14C25.6072 14.0013 25.2413 14.2387 25.0831 14.6057L19.767 26.8489L15.7305 20.4694C15.5594 20.2008 15.264 20.0221 14.9584 20.0049L14.8159 19.9987C14.5675 19.9996 14.2677 20.1434 14.08 20.3759L10.3344 25.0005H5.01247C4.45396 25.0005 4 25.4487 4 26.0006C4 26.552 4.45396 27.0002 5.01247 27.0002H10.821C11.1297 27.0002 11.4193 26.8626 11.6145 26.6235L14.7694 22.7272L19.0776 29.5306C19.2643 29.8244 19.5838 30 19.9332 30L20.0538 29.9952C20.3921 29.9691 20.7173 29.7384 20.8657 29.3956L25.7833 18.0683L30.0963 34.254C30.2031 34.655 30.5623 34.9528 30.9904 34.996L31.0766 35C31.4622 35 31.8094 34.7878 31.9823 34.4472L35.7538 27.0002H44.9871C45.546 27.0002 46 26.552 46 26.0006C46 25.4487 45.546 25.0005 44.9871 25.0005Z" fill="#00ABC7"/>
</svg>
