<svg width="50" height="50" viewBox="0 0 50 50" fill="none" xmlns="http://www.w3.org/2000/svg">
<g clip-path="url(#clip0_30_420)">
<path fill-rule="evenodd" clip-rule="evenodd" d="M8.3638 18.681C8.21015 18.8322 8.11181 19.0498 8.11181 19.2795L8.11181 21.4922L12.7214 21.4922L12.7214 19.2795C12.7214 18.808 12.3342 18.4271 11.8548 18.4271L8.97842 18.4271C8.73257 18.4271 8.5236 18.5239 8.3638 18.681ZM9.85117 24.4967L10.9821 24.4967L10.9821 35.451L10.4166 36.0072L9.85118 35.451L9.85117 24.4967ZM8.11181 36.1583L8.11181 22.7859L12.7214 22.7859L12.7214 36.1583L10.4166 38.4254L8.11181 36.1583Z" fill="#00ABC7"/>
<path fill-rule="evenodd" clip-rule="evenodd" d="M15.9141 11.8489C15.9141 10.8368 16.7482 10.0164 17.7771 10.0164H30.5166C31.0932 10.0164 31.6373 10.279 31.9902 10.7276L37.8811 18.218C38.1336 18.539 38.2706 18.9334 38.2706 19.3392V36.435C38.2706 37.447 37.4365 38.2675 36.4076 38.2675H17.7771C16.7482 38.2675 15.9141 37.447 15.9141 36.435V11.8489ZM30.5166 11.8489L17.7771 11.8489V36.435H36.4076V19.3392L30.5166 11.8489Z" fill="#00ABC7"/>
<path fill-rule="evenodd" clip-rule="evenodd" d="M30.663 10.4745C31.1774 10.4745 31.5945 10.8847 31.5945 11.3908V17.9572H36.8731C37.3876 17.9572 37.8046 18.3675 37.8046 18.8735C37.8046 19.3795 37.3876 19.7897 36.8731 19.7897H31.5945C30.5656 19.7897 29.7314 18.9693 29.7314 17.9572V11.3908C29.7314 10.8847 30.1485 10.4745 30.663 10.4745Z" fill="#00ABC7"/>
</g>
<defs>
<clipPath id="clip0_30_420">
<rect width="50" height="50" fill="white"/>
</clipPath>
</defs>
</svg>
