<svg width="50" height="50" viewBox="0 0 50 50" fill="none" xmlns="http://www.w3.org/2000/svg">
<path fill-rule="evenodd" clip-rule="evenodd" d="M32.3149 24.5C32.3149 24.8542 32.2836 25.1875 32.242 25.5208L34.4399 27.2396C34.6378 27.3958 34.6899 27.6771 34.5649 27.9062L32.4816 31.5104C32.3878 31.6771 32.2107 31.7708 32.0336 31.7708C31.9711 31.7708 31.9086 31.7604 31.8461 31.7396L29.2524 30.6979C28.7107 31.1042 28.1274 31.4583 27.492 31.7187L27.0961 34.4792C27.0649 34.7292 26.8461 34.9167 26.5857 34.9167H22.4191C22.1586 34.9167 21.9399 34.7292 21.9086 34.4792L21.5128 31.7187C20.8774 31.4583 20.2941 31.1146 19.7524 30.6979L17.1586 31.7396C17.1066 31.7604 17.0441 31.7708 16.9816 31.7708C16.7941 31.7708 16.617 31.6771 16.5232 31.5104L14.4399 27.9062C14.3149 27.6771 14.367 27.3958 14.5649 27.2396L16.7628 25.5208C16.7211 25.1875 16.6899 24.8437 16.6899 24.5C16.6899 24.1562 16.7211 23.8125 16.7628 23.4792L14.5649 21.7604C14.367 21.6042 14.3045 21.3229 14.4399 21.0937L16.5232 17.4896C16.617 17.3229 16.7941 17.2292 16.9711 17.2292C17.0336 17.2292 17.0961 17.2396 17.1586 17.2604L19.7524 18.3021C20.2941 17.8958 20.8774 17.5417 21.5128 17.2812L21.9086 14.5208C21.9399 14.2708 22.1586 14.0833 22.4191 14.0833H26.5857C26.8461 14.0833 27.0649 14.2708 27.0961 14.5208L27.492 17.2812C28.1274 17.5417 28.7107 17.8854 29.2524 18.3021L31.8461 17.2604C31.8982 17.2396 31.9607 17.2292 32.0232 17.2292C32.2107 17.2292 32.3878 17.3229 32.4816 17.4896L34.5649 21.0937C34.6899 21.3229 34.6378 21.6042 34.4399 21.7604L32.242 23.4792C32.2836 23.8125 32.3149 24.1458 32.3149 24.5ZM30.2316 24.5C30.2316 24.2812 30.2211 24.0625 30.1795 23.7396L30.0336 22.5625L30.9607 21.8333L32.0753 20.9479L31.3461 19.6875L30.0232 20.2187L28.9191 20.6667L27.9711 19.9375C27.5545 19.625 27.1378 19.3854 26.6899 19.1979L25.5857 18.75L25.4191 17.5729L25.2211 16.1667H23.7732L23.5649 17.5729L23.3982 18.75L22.2941 19.1979C21.867 19.375 21.4399 19.625 20.992 19.9583L20.0545 20.6667L18.9711 20.2292L17.6482 19.6979L16.9191 20.9583L18.0441 21.8333L18.9711 22.5625L18.8253 23.7396C18.7941 24.0521 18.7732 24.2917 18.7732 24.5C18.7732 24.7083 18.7941 24.9479 18.8253 25.2708L18.9711 26.4479L18.0441 27.1771L16.9191 28.0521L17.6482 29.3125L18.9711 28.7812L20.0753 28.3333L21.0232 29.0625C21.4399 29.375 21.8566 29.6146 22.3045 29.8021L23.4086 30.25L23.5753 31.4271L23.7732 32.8333H25.2316L25.4399 31.4271L25.6066 30.25L26.7107 29.8021C27.1378 29.625 27.5649 29.375 28.0128 29.0417L28.9503 28.3333L30.0336 28.7708L31.3566 29.3021L32.0857 28.0417L30.9607 27.1667L30.0336 26.4375L30.1795 25.2604C30.2107 24.9479 30.2316 24.7187 30.2316 24.5ZM24.5024 20.3333C22.2003 20.3333 20.3357 22.1979 20.3357 24.5C20.3357 26.8021 22.2003 28.6667 24.5024 28.6667C26.8045 28.6667 28.6691 26.8021 28.6691 24.5C28.6691 22.1979 26.8045 20.3333 24.5024 20.3333ZM22.4191 24.5C22.4191 25.6458 23.3566 26.5833 24.5024 26.5833C25.6482 26.5833 26.5857 25.6458 26.5857 24.5C26.5857 23.3542 25.6482 22.4167 24.5024 22.4167C23.3566 22.4167 22.4191 23.3542 22.4191 24.5Z" fill="#00ABC7"/>
</svg>
