<svg width="50" height="50" viewBox="0 0 50 50" fill="none" xmlns="http://www.w3.org/2000/svg">
<path fill-rule="evenodd" clip-rule="evenodd" d="M10.9808 14.3416C10.762 14.3416 10.5846 14.5256 10.5846 14.7525V36.9451C10.5846 37.1721 10.762 37.3561 10.9808 37.3561H35.3448C35.5636 37.3561 35.7409 37.1721 35.7409 36.9451V28.9311C35.7409 28.4772 36.0957 28.1092 36.5333 28.1092C36.9708 28.1092 37.3256 28.4772 37.3256 28.9311V36.9451C37.3256 38.08 36.4387 39 35.3448 39H10.9808C9.88684 39 9 38.08 9 36.9451V14.7525C9 13.6177 9.88684 12.6977 10.9808 12.6977H22.4695C22.9071 12.6977 23.2618 13.0657 23.2618 13.5196C23.2618 13.9736 22.9071 14.3416 22.4695 14.3416H10.9808ZM31.7793 13.5196C31.7793 13.0657 32.134 12.6977 32.5716 12.6977H35.3448C36.4387 12.6977 37.3256 13.6177 37.3256 14.7525V22.3556C37.3256 22.8095 36.9708 23.1775 36.5333 23.1775C36.0957 23.1775 35.7409 22.8095 35.7409 22.3556V14.7525C35.7409 14.5256 35.5636 14.3416 35.3448 14.3416H32.5716C32.134 14.3416 31.7793 13.9736 31.7793 13.5196Z" fill="#00ABC7"/>
<path fill-rule="evenodd" clip-rule="evenodd" d="M39.3245 23.7014H31.9541C31.7279 23.7014 31.5446 23.8762 31.5446 24.0918V27.6059C31.5446 27.8215 31.7279 27.9963 31.9541 27.9963H39.3245C39.5507 27.9963 39.734 27.8215 39.734 27.6059V24.0918C39.734 23.8762 39.5507 23.7014 39.3245 23.7014ZM31.9541 22.1395C30.8234 22.1395 29.9067 23.0136 29.9067 24.0918V27.6059C29.9067 28.6841 30.8234 29.5581 31.9541 29.5581H39.3245C40.4552 29.5581 41.3719 28.6841 41.3719 27.6059V24.0918C41.3719 23.0136 40.4552 22.1395 39.3245 22.1395H31.9541Z" fill="#00ABC7"/>
<path d="M35.9769 25.8488C35.9769 26.4076 35.5239 26.8605 34.9652 26.8605C34.4065 26.8605 33.9536 26.4076 33.9536 25.8488C33.9536 25.2901 34.4065 24.8372 34.9652 24.8372C35.5239 24.8372 35.9769 25.2901 35.9769 25.8488Z" fill="#00ABC7"/>
<path fill-rule="evenodd" clip-rule="evenodd" d="M11.6978 16.7442C11.6978 16.3717 12.062 16.0698 12.5113 16.0698H36.5121C36.9614 16.0698 37.3257 16.3717 37.3257 16.7442C37.3257 17.1167 36.9614 17.4186 36.5121 17.4186H12.5113C12.062 17.4186 11.6978 17.1167 11.6978 16.7442Z" fill="#00ABC7"/>
<path fill-rule="evenodd" clip-rule="evenodd" d="M30.0944 11.8251C29.9946 11.6289 29.7528 11.548 29.5519 11.6437L17.5902 17.3383C17.1848 17.5312 16.6971 17.3647 16.5007 16.9663C16.3044 16.5679 16.4738 16.0884 16.8792 15.8955L28.8409 10.2009C29.8453 9.72269 31.0542 10.1271 31.5533 11.1082L33.8675 15.6572C34.069 16.0532 33.9057 16.5346 33.5028 16.7326C33.1 16.9306 32.6101 16.7701 32.4086 16.3741L30.0944 11.8251Z" fill="#00ABC7"/>
</svg>
